<svg xmlns="http://www.w3.org/2000/svg" viewBox="0 0 1538.5 751.79"><defs><style>.cls-1,.cls-4,.cls-5{fill:#fff;}.cls-2,.cls-3{fill:none;}.cls-2,.cls-4,.cls-5{stroke:#231f20;stroke-miterlimit:10;}.cls-2,.cls-4{stroke-width:10px;}.cls-3{stroke:#000;stroke-width:0.3px;}</style></defs><g id="Layer_1" data-name="Layer 1"><path class="cls-1" d="M878.13,649.36,666.77,1276.64l-136.13-214q-75.12,107-150.23,214L144,649.36H387.22l79.55,106.82H587.22l59.09-106.82Z" transform="translate(-82.81 -590.36)"/><path class="cls-2" d="M878.13,649.36,666.77,1276.64l-136.13-214q-75.12,107-150.23,214L144,649.36H387.22l79.55,106.82H587.22l59.09-106.82Z" transform="translate(-82.81 -590.36)"/><line class="cls-3" x1="54" x2="54" y2="36"/><line class="cls-3" y1="54" x2="36" y2="54"/><line class="cls-3" y1="697.79" x2="36" y2="697.79"/><line class="cls-3" x1="54" y1="751.79" x2="54" y2="715.79"/><line class="cls-3" x1="802.28" x2="802.28" y2="36"/><line class="cls-3" x1="856.28" y1="54" x2="820.28" y2="54"/><line class="cls-3" x1="856.28" y1="697.79" x2="820.28" y2="697.79"/><line class="cls-3" x1="802.28" y1="751.79" x2="802.28" y2="715.79"/></g><g id="Layer_2" data-name="Layer 2"><path class="cls-1" d="M882.27,649.36h181.82c123.8,65.32,196.68,195.77,184.09,327.28-17,177.56-183.24,279.26-290.16,296.88-6.2,1-12.72,1.72-25.75,3.12-112.68,12.09-201.94,6.8-261.36,0L799,896.57l3.75-11.14Z" transform="translate(-82.81 -590.36)"/><path d="M879.36,645.3c61.38-.58,123.15-1,184.73-.94h1.24l1.09.58a362.75,362.75,0,0,1,110.34,89.84,344.24,344.24,0,0,1,65.91,126.09c12.8,46,15.55,95,6.79,142.09a301.1,301.1,0,0,1-21.07,68.46,327.86,327.86,0,0,1-36.38,61.65c-1.72,2.45-3.63,4.74-5.48,7.08l-5.59,7-5.87,6.76c-2,2.25-3.89,4.54-6,6.67-4.11,4.33-8.14,8.74-12.47,12.84-2.14,2.08-4.24,4.19-6.41,6.24l-6.63,6a399.74,399.74,0,0,1-57.26,42.66c-2.5,1.62-5.08,3.1-7.66,4.6s-5.13,3-7.73,4.47c-5.26,2.8-10.44,5.76-15.81,8.34-10.61,5.43-21.55,10.18-32.62,14.61-22.23,8.67-45.23,15.48-69.12,18.91-6,.79-11.81,1.4-17.67,2l-17.62,1.78c-5.88.62-11.77,1.07-17.66,1.56l-8.83.74-8.84.59q-35.37,2.41-70.84,2.81a1142.94,1142.94,0,0,1-141.58-7.17h0l-6.51-.85,2.34-5.71c10.5-25.57,20.31-51.37,29.82-77.26s18.72-51.9,27.68-78q26.66-78.33,52.54-156.92l13-39.28L795.67,904l6.42-19.67L815,844.81l6.45-19.76,6.4-19.82,25.72-79.6Zm5.83,8.12-27,76.49-27.13,77.22-6.81,19.39L817.48,846,803.93,884.9l-6.79,19.54L790.42,924,777,963.13q-26.9,78.24-53.14,156.72-13,39.27-25.16,78.83c-8.1,26.37-15.9,52.85-23,79.55l-4.17-6.56h0a1132.25,1132.25,0,0,0,140.34,7.1,1282.8,1282.8,0,0,0,140.22-9.42,264.4,264.4,0,0,0,33.84-7.21l2.1-.56,2.08-.63,4.15-1.28,4.16-1.27c1.38-.43,2.74-.93,4.12-1.39,2.74-1,5.49-1.87,8.22-2.86l8.13-3.11c10.78-4.31,21.45-8.94,31.79-14.24,5.24-2.51,10.29-5.4,15.42-8.13,2.54-1.42,5-2.92,7.55-4.37s5-2.9,7.48-4.48a389.09,389.09,0,0,0,55.83-41.61l6.46-5.85c2.11-2,4.16-4,6.24-6.07,4.22-4,8.13-8.28,12.13-12.49,2-2.07,3.89-4.3,5.8-6.48l5.71-6.57,5.42-6.8c1.8-2.27,3.66-4.5,5.32-6.87a317.1,317.1,0,0,0,35.25-59.73,291,291,0,0,0,20.38-66.19c8.47-45.54,5.81-93-6.6-137.61a334.17,334.17,0,0,0-64-122.42,352.94,352.94,0,0,0-107.28-87.34l2.33.57C1004.46,654.38,945,654,885.19,653.42Z" transform="translate(-82.81 -590.36)"/><path class="cls-2" d="M913.89,896.9,799,896.57,764.12,1000,913,1004.31c11.15.32,32.81,1.45,52.34-11.91,1.15-.78,27.62-19.37,26.76-43C991.2,924.43,959.68,897.86,913.89,896.9Z" transform="translate(-82.81 -590.36)"/></g><g id="Layer_3" data-name="Layer 3"><path class="cls-4" d="M1614.09,649.36,1552.73,813H1219.89a374.88,374.88,0,0,0-155.8-163.64Z" transform="translate(-82.81 -590.36)"/><path class="cls-4" d="M1502.33,933.45l-50.66,136-228.34,2.65a311.07,311.07,0,0,0,26-138.64Z" transform="translate(-82.81 -590.36)"/><path class="cls-4" d="M855.78,1282.54c0,.93,91.74,2.53,512.93,5.46l43.11-106.82-268.89-1.57a390.26,390.26,0,0,1-66.31,48.78c-44.48,25.95-82.46,36.22-90.73,38.39-24.21,6.33-44.06,8.6-67,11.22C880.71,1282.37,855.78,1282.05,855.78,1282.54Z" transform="translate(-82.81 -590.36)"/><path class="cls-5" d="M952.11,897.89" transform="translate(-82.81 -590.36)"/></g></svg>